<svg viewBox="0 0 120 24" width="130" height="26" xmlns="http://www.w3.org/2000/svg">
<g clip-path="url(#clip0_7558_23)">
<path fill="#E52626" d="M21.5896 14.4848C20.948 17.5147 19.5816 19.8587 17.492 21.5144C15.4016 23.1709 12.7312 23.9992 9.4824 23.9992C7.0608 23.9992 5.1 23.5147 3.5992 22.544C2.0984 21.5742 1.064 20.1899 0.494396 18.3918C-0.0752036 16.5937 -0.152804 14.4629 0.261596 11.9992C0.654396 9.62309 1.4416 7.56383 2.6208 5.81885C3.8008 4.07555 5.3064 2.75692 7.1376 1.8621C8.9696 0.968123 11.0232 0.521556 13.3 0.521556C15.5768 0.521556 17.2784 0.903244 18.7176 1.66578C20.156 2.42915 21.1808 3.51355 21.7912 4.91897C22.4016 6.32524 22.5616 8.0205 22.2728 10.0031H14.4496C14.512 9.00042 14.3456 8.22104 13.9528 7.66494C13.5592 7.10883 12.9696 6.83078 12.1832 6.83078C11.5208 6.83078 10.9048 7.033 10.336 7.43575C9.7664 7.83935 9.296 8.42241 8.9232 9.18495C8.5504 9.94832 8.2712 10.9072 8.0848 12.0624C7.8984 13.1965 7.852 14.1823 7.9448 15.0215C8.0376 15.8607 8.2808 16.5204 8.6744 16.9999C9.0672 17.4793 9.6264 17.7194 10.3512 17.7194C11.1784 17.7194 11.8824 17.4582 12.4624 16.935C13.0416 16.4117 13.476 15.5944 13.7664 14.4822H21.5896V14.4848ZM35.7152 6.31091C34.328 6.31091 33.112 6.55105 32.0672 7.03047C31.0216 7.5099 30.184 8.08791 29.5528 8.76366C29.4216 8.90437 29.2992 9.04592 29.1824 9.18916H28.4816L29.2576 7.61944L31.12 5.95197L32.1456 0H25.1912L21.2488 23.5425H28.2032L29.7552 14.093C29.9 13.3523 30.2056 12.7684 30.6712 12.3438C31.1368 11.9183 31.6696 11.7059 32.2704 11.7059C32.808 11.7059 33.1808 11.8753 33.388 12.2132C33.5944 12.551 33.6464 13.0145 33.5432 13.6026L31.8664 23.5425H38.8208L40.7456 11.9671C41.0352 10.2238 40.7656 8.84455 39.9384 7.83092C39.1104 6.8173 37.7032 6.31007 35.716 6.31007L35.7152 6.31091ZM59.1392 10.6106C59.5632 11.9949 59.6208 13.6464 59.3096 15.5641L59.1856 16.4471H48.2872C48.2584 16.8347 48.248 17.1903 48.2576 17.5096C48.2776 18.2182 48.4336 18.7575 48.7232 19.1282C49.0128 19.4989 49.4376 19.6843 49.996 19.6843C50.5544 19.6843 50.984 19.5209 51.3464 19.1939C51.708 18.867 51.9928 18.4204 52.2 17.8534H58.9992C58.4816 19.6194 57.364 21.0796 55.6464 22.2348C53.928 23.3908 51.8072 23.968 49.2824 23.968C47.44 23.968 45.888 23.6023 44.6256 22.8726C43.3632 22.143 42.4728 21.0796 41.956 19.6843C41.4384 18.2898 41.3352 16.6215 41.6456 14.6819C41.9352 12.9816 42.52 11.5054 43.4 10.2517C44.2792 8.99874 45.4336 8.02809 46.8616 7.34138C48.2896 6.65468 49.9456 6.31175 51.8288 6.31175C53.836 6.31175 55.4504 6.68249 56.672 7.42312C57.8928 8.16458 58.716 9.22708 59.14 10.6114L59.1392 10.6106ZM49.096 12.3926C49.0168 12.5839 48.944 12.7929 48.876 13.0136H53.2576C53.2536 12.7828 53.2384 12.5637 53.2096 12.3598C53.1168 11.7059 52.9144 11.2316 52.604 10.9375C52.2936 10.6434 51.8896 10.496 51.3936 10.496C50.8976 10.496 50.4312 10.6485 50.0584 10.9535C49.6856 11.2594 49.3648 11.738 49.096 12.3918V12.3926ZM77.9024 14.1309C77.3848 15.8969 76.2672 17.3571 74.5496 18.5123C72.8312 19.6683 70.7104 20.2455 68.1856 20.2455C66.3432 20.2455 64.7912 19.8798 63.5288 19.1501C62.2664 18.4204 61.376 17.3571 60.8592 15.9618C60.3416 14.5673 60.2384 12.899 60.5488 10.9594C60.8384 9.25909 61.4232 7.7829 62.3032 6.52914C63.1824 5.27623 64.3368 4.30558 65.7648 3.61887C67.1928 2.93217 68.8488 2.58924 70.732 2.58924C72.7392 2.58924 74.3536 2.95998 75.5752 3.7006C76.796 4.44207 77.6192 5.50456 78.0432 6.88892C78.4672 8.27328 78.5248 9.92473 78.2136 11.8424L78.0896 12.7255H67.1912C67.1624 13.113 67.152 13.4686 67.1616 13.788C67.1816 14.4966 67.3376 15.0358 67.6272 15.4065C67.9168 15.7773 68.3416 15.9626 68.9 15.9626C69.4584 15.9626 69.888 15.7992 70.2504 15.4723C70.612 15.1453 70.8968 14.6988 71.104 14.1317H77.9032L77.9024 14.1309ZM67.9992 8.67013C67.92 8.8614 67.8472 9.07036 67.7792 9.29111H72.1608C72.1568 9.06024 72.1416 8.84118 72.1128 8.63727C72.02 7.98343 71.8176 7.50906 71.5072 7.215C71.1968 6.92094 70.7928 6.77349 70.2968 6.77349C69.8008 6.77349 69.3344 6.92599 68.9616 7.23101C68.5888 7.53686 68.268 8.01545 67.9992 8.66929V8.67013ZM93.4536 6.73557C92.8944 6.45247 92.1912 6.31091 91.3424 6.31091C90.204 6.31091 89.1848 6.57801 88.2848 7.1122C87.3848 7.6464 86.6496 8.3331 86.0808 9.17231C85.8512 9.51102 85.6504 9.8548 85.476 10.2019H84.8544L85.8168 7.78205L85.972 6.76843H80.5704L77.776 23.5425H84.6992L85.8168 16.8398C86.0232 15.597 86.536 14.6272 87.3536 13.9295C88.1712 13.2319 89.1384 12.883 90.256 12.883C90.9592 12.883 91.6736 13.0027 92.3984 13.2428L93.4536 6.73557ZM108.715 14.4527C107.835 13.6026 106.465 13.0364 104.602 12.7524L101.994 12.3598C101.352 12.2511 100.902 12.1146 100.643 11.9511C100.384 11.7877 100.296 11.5096 100.379 11.117C100.421 10.812 100.591 10.5828 100.891 10.4303C101.191 10.2778 101.538 10.2011 101.931 10.2011C102.49 10.2011 102.914 10.3266 103.204 10.5769C103.494 10.828 103.638 11.1819 103.638 11.6394H110.002C110.25 9.96096 109.759 8.65328 108.528 7.71549C107.296 6.77854 105.335 6.30923 102.645 6.30923C100.968 6.30923 99.4784 6.52156 98.1744 6.94706C96.8704 7.37172 95.82 7.99354 95.0232 8.81084C94.2264 9.62814 93.7344 10.6367 93.5488 11.8357C93.2792 13.4054 93.5224 14.6373 94.2784 15.5304C95.0336 16.4244 96.2808 17.0133 98.0192 17.2964L100.596 17.6562C101.341 17.7868 101.863 17.9781 102.164 18.2283C102.464 18.4794 102.573 18.7895 102.49 19.1602C102.427 19.4442 102.262 19.6675 101.993 19.8309C101.723 19.9944 101.362 20.0761 100.906 20.0761C100.202 20.0761 99.6744 19.9287 99.3232 19.6346C98.9712 19.3405 98.7848 18.9209 98.764 18.3758H92.3064C92.1408 20.2505 92.6944 21.6509 93.9672 22.5777C95.24 23.5046 97.2632 23.9671 100.037 23.9671C101.817 23.9671 103.384 23.727 104.74 23.2476C106.095 22.7682 107.198 22.0865 108.046 21.2043C108.895 20.3213 109.422 19.2807 109.63 18.0817C109.898 16.512 109.594 15.3021 108.714 14.4519L108.715 14.4527ZM113.326 1.04227L112.379 6.74315C112.121 8.30024 112.02 9.88176 112.078 11.4616L112.207 14.9381H116.522L117.919 11.122C118.415 9.76717 118.784 8.36512 119.022 6.93442L120 1.04143H113.326V1.04227ZM113.328 23.4877H113.686C115.106 23.4877 116.322 22.4168 116.574 20.9448C116.898 19.0499 115.514 17.3074 113.686 17.3074H113.328C111.902 17.3074 110.683 18.3867 110.438 19.8655C110.124 21.7562 111.506 23.4869 113.328 23.4869V23.4877Z">
</path>
</g>
<defs>
<clipPath id="clip0_7558_23">
<rect width="120" height="24">
</rect>
</clipPath>
</defs>
</svg>
