<svg width="3000" height="3000" viewBox="0 0 3000 3000" fill="none" xmlns="http://www.w3.org/2000/svg">
<path fill-rule="evenodd" clip-rule="evenodd" d="M451.752 2345.8C474.632 2345.8 493.182 2327.42 493.182 2304.74C493.182 2282.06 474.632 2263.67 451.752 2263.67C428.872 2263.67 410.318 2282.06 410.318 2304.74C410.318 2327.42 428.872 2345.8 451.752 2345.8ZM2576.26 2334.41C2599.14 2334.41 2617.69 2316.02 2617.69 2293.34C2617.69 2270.65 2599.14 2252.26 2576.26 2252.26C2553.38 2252.26 2534.83 2270.65 2534.83 2293.34C2534.83 2316.02 2553.38 2334.41 2576.26 2334.41ZM1997.24 336.641C2020.11 336.641 2038.66 318.252 2038.66 295.567C2038.66 272.889 2020.11 254.496 1997.24 254.496C1974.35 254.496 1955.8 272.889 1955.8 295.567C1955.8 318.252 1974.35 336.641 1997.24 336.641ZM958.537 943.295C631.64 1034.49 459.946 1270.12 521.178 1722.55C491.285 1745.18 480.401 1782.97 507.446 1826.87C513.756 1837.11 518.591 1842.83 522.211 1851.11C623.979 2084.19 833.843 2202.05 1137.96 2233.42C1130.86 2156.02 1238.12 2083.33 1465.08 2054.03C1587.21 2038.25 1693.52 1998.02 1879.4 2119.59C2008.15 2203.82 2133.61 2286.6 2260.72 2359.85C2058.24 2537.4 1792.53 2645.14 1501.51 2645.14C866.781 2645.14 352.244 2132.87 352.244 1500.96C352.244 869.038 866.781 356.769 1501.51 356.769C1843.15 356.769 2149.91 505.236 2360.41 740.836C2275.62 820.071 2162.5 875.6 2032.82 923.646C1873.33 982.733 1747.4 1024.87 1662.21 1031.58C1694.19 953.638 1713.32 869.844 1724.17 782.282C1556.36 646.728 1407.77 663.972 1274.55 803.183C1383.92 865.902 1440.17 950.857 1466.92 1048.17C1229.79 1142.2 1077.17 1268.3 1007.21 1425.73C985.938 1427.82 973.955 1426.75 948.847 1416.36C924.322 1441.29 911.409 1475.25 904.169 1513.64C880.603 1503.45 860.611 1484.32 844.731 1454.92C834.223 1462.7 824.612 1471.76 816.264 1482.66C706.607 1235.39 795.227 1073.29 958.537 943.295ZM1024.38 1598.28L1038.8 1565.13C1116.54 1564.85 1175.76 1525.06 1210.28 1432.55C1283.33 1425.42 1355.32 1395.02 1426.44 1344.65C1429.02 1354.63 1429.08 1363.84 1425.73 1377.01C1452.43 1375.16 1492.04 1387.02 1508.76 1407.34C1458.4 1425.96 1417.83 1454.45 1381.77 1487.31C1336.12 1528.89 1282.34 1558.42 1226.13 1582.43C1233.96 1586.11 1246.05 1601.76 1249.19 1618.44C1176.46 1604.65 1101.91 1596.7 1024.38 1598.28ZM1139.02 1569.37C1164.72 1545.31 1178.86 1525.47 1194.83 1517.62C1201.56 1514.32 1250.04 1505.47 1286.36 1502.65C1260.59 1537.93 1235.69 1560.42 1211.8 1564.69C1185.91 1569.31 1162.06 1569.83 1139.02 1569.37ZM721.5 1636.74C683.983 1598.41 664.376 1542.88 650.888 1481.47C628.946 1530.76 651.165 1615.15 684.752 1669.17L721.5 1636.74ZM792.124 1601.69C817.872 1582.36 830.492 1554.86 836.062 1530.72C844.521 1541.02 848.273 1546.39 853.537 1558.83C860.198 1574.55 874.876 1575.23 891.921 1568.54C926 1555.16 949.438 1579.51 926.145 1650.68C900.599 1603.87 862.566 1584.99 792.124 1601.69ZM826.198 1646.54C812.603 1640.32 810.574 1658.28 819.719 1666.89C828.831 1675.47 845.525 1678.49 846.38 1669.06C847.244 1659.55 837.041 1651.49 826.198 1646.54ZM1166.51 1419.03C1209.41 1355.15 1260.32 1284.72 1323.22 1221.6C1361.93 1182.79 1396.63 1167.25 1426.62 1198.91C1446.79 1220.2 1466.29 1248.54 1477.42 1274.57C1445.56 1245.1 1405.92 1237.34 1359.25 1276.37C1299.83 1326.04 1232.94 1376.17 1166.51 1419.03ZM2203.03 1264.13C2243.51 1201.48 2279.43 1166.13 2362.62 1110.87C2413.8 1076.88 2480.78 1009.83 2520.78 965.836C2563.38 1038.56 2594.66 1121.5 2618.05 1211.53C2453.73 1208.95 2307.77 1220.59 2203.03 1264.13ZM2303.13 1536.16C2430.83 1532.36 2547.94 1513.56 2652.58 1477.08C2655.78 1513.58 2654.18 1549.63 2646.81 1585.17C2526.56 1606.81 2426.26 1600.02 2303.13 1536.16ZM2220.22 1752.15C2376.9 1832.77 2493.81 1816.07 2613.64 1775.93C2601.31 1835.18 2585.61 1886.01 2567.52 1930.84C2351.71 1949.63 2271.52 1885.87 2220.22 1752.15ZM598.19 1700.94C504.884 1348.3 596.723 1205.61 796.07 1040.28C559.157 1175.49 498.797 1419.52 542.426 1727.66C515.657 1750.24 508.351 1779.56 532.335 1817.01C539.211 1827.74 542.723 1843.53 551.07 1863.12C632.57 2054.33 841.719 2181.42 1122.06 2210.79C1132.96 2093 1362.38 2047 1483.77 2028.66C1653.77 2002.97 1745.99 2009.78 1865.73 2087.29C2001.75 2175.35 2162.58 2289.06 2277.52 2345.62L2359.66 2265.64C2163.9 2168.73 2017.43 2066.27 1927.19 1956.36C1914.97 1941.47 1913.66 1926 1919.08 1906.1C1942.36 1820.7 1951.49 1730.51 1946.44 1636.61C1934.44 1413.58 1879.84 1322.99 1752.26 1296.51C1850.12 1382.55 1904.94 1478.96 1897.09 1584.36C1889.02 1692.74 1848.01 1795.35 1785.41 1894.55C1775.14 1910.82 1733.34 1929.79 1713.78 1934.77C1563.02 1973.09 1456.3 1988.86 1316.04 2005.38C1342.5 1967.18 1359.47 1928.98 1370.57 1890.78C1235.09 2019.23 1118.15 2092.81 1108.29 2202.77C962.884 2209.03 765.636 2093.75 643.93 1951.6C573.124 1868.92 560.934 1793.78 597.616 1727.3C604.202 1715.37 600.645 1710.24 598.19 1700.94ZM923.868 1538.45C925.442 1506.99 934.893 1475.53 953.769 1444.06C981.45 1448.62 1016.56 1465.58 1044.91 1405.87C1101.66 1286.36 1225.07 1170.64 1496.37 1060.37C1473.24 956.72 1420.47 866.142 1312.3 799.964C1432.78 691.604 1561.66 682.447 1700.86 794.567C1687.61 886.476 1664.03 973.216 1630.6 1055.03C1841.68 1041.07 2298.66 865.303 2375.27 757.819C2396.33 774.571 2412.75 793.472 2424.45 814.555C2315.27 879.414 2180.26 944.819 2020.27 995.605C1815.43 1060.62 1672.68 1087.02 1616.05 1083.15C1650.52 982.34 1674.17 893.365 1658.89 835.836C1646.71 789.968 1597.77 766.852 1548.38 757.608C1494.44 747.522 1419.86 749.1 1342.58 793.497C1481.92 841.253 1530.42 918.27 1507.94 1100.44C1223.97 1182.01 1102.67 1322.92 1063.72 1493.85C1029.76 1492.87 997.876 1487.25 969.69 1473.31C954.413 1483.69 939.145 1505.01 923.868 1538.45ZM738.74 2624.33L782.843 2651.57L791.921 2585.85L738.74 2624.33ZM635.426 2630.82L785.442 2517.11L860.231 2562.94L832.562 2754.89L775.066 2717.28L775.926 2695.23L710.219 2653.73L689.897 2671.89L635.426 2630.82ZM1016.2 2762.4L1064.43 2781.38L1061.69 2715.09L1016.2 2762.4ZM915.673 2787.13L1043.12 2648.59L1124.86 2680.42L1131.7 2874.23L1068.44 2847.43L1065.38 2825.57L993.339 2796.39L976.574 2817.87L915.673 2787.13ZM1319.61 2852.66L1371.05 2858.97L1351.82 2795.47L1319.61 2852.66ZM1228.46 2901.75L1317.19 2735.74L1404.3 2746.1L1459.42 2932.04L1391.46 2921.91L1383.03 2901.52L1305.98 2891.3L1295.12 2916.29L1228.46 2901.75ZM2797.05 1344.27L2803.05 1395.75L2860.22 1362.1L2797.05 1344.27ZM2727.88 1267.25L2910.11 1314.38L2920.57 1401.48L2752.85 1498.84L2746.68 1430.42L2764.51 1417.42L2756.29 1340.12L2729.45 1335.46L2727.88 1267.25ZM1354.86 231.905L1406.59 228.798L1376.2 169.835L1354.86 231.905ZM1274.1 296.674L1331.34 117.347L1418.88 111.777L1506.73 284.678L1438.06 287.009L1426.08 268.484L1348.45 272.368L1342.29 298.905L1274.1 296.674ZM806.926 432.616L850.438 404.451L794.971 368.079L806.926 432.616ZM768.479 528.736L730.095 344.447L803.566 296.538L965.112 403.844L906.475 439.653L886.926 429.422L821.252 470.988L828.95 497.129L768.479 528.736ZM247.095 1692.14C249.674 1720.32 231.81 1744.98 207.202 1747.23C182.595 1749.47 160.554 1728.46 157.983 1700.28C155.405 1672.1 173.269 1647.44 197.876 1645.18C222.483 1642.94 244.525 1663.96 247.095 1692.14ZM301.066 1688.94C307.405 1758.25 267.244 1818.58 211.364 1823.68C155.492 1828.8 105.058 1776.74 98.7314 1707.43C92.3925 1638.12 132.55 1577.8 188.43 1572.68C244.306 1567.58 294.744 1619.63 301.066 1688.94ZM1676.83 157.43C1705.12 157.43 1728.06 177.455 1728.06 202.166C1728.06 226.876 1705.12 246.909 1676.83 246.909C1648.54 246.909 1625.6 226.876 1625.6 202.166C1625.6 177.455 1648.54 157.43 1676.83 157.43ZM1678.56 103.376C1748.16 103.376 1804.58 148.864 1804.58 204.975C1804.58 261.091 1748.16 306.575 1678.56 306.575C1608.96 306.575 1552.54 261.091 1552.54 204.975C1552.54 148.864 1608.96 103.376 1678.56 103.376ZM1836.14 2697.8L1895.58 2871.26L2079.86 2808.04L2064.76 2768.38L1949.08 2808.58L1938.99 2779.09L2027.99 2748.59L2015.55 2715.63L1927.77 2746.34L1915.59 2710.77L2029.15 2674.82L2031.42 2680.77L2016.1 2640.51L1836.14 2697.8ZM2312.89 2553.68L2257.79 2583.47C2215.58 2553.98 2151.21 2587.83 2169.68 2642.54C2185.64 2689.8 2267.38 2662.92 2267.79 2621.1L2329.56 2589.19C2358.45 2688.4 2172.39 2784.23 2114.74 2674.88C2054.67 2560.92 2254.43 2471.66 2312.89 2553.68ZM1761.58 2787.86L1698.47 2797.41C1668.16 2754.57 1594.76 2764.79 1593.58 2823.6C1592.56 2874.45 1680.23 2876.9 1695.06 2836.94L1765.3 2827.66C1758.74 2932.77 1547.24 2960.41 1529.74 2835.64C1511.48 2705.64 1733.83 2689.04 1761.58 2787.86ZM2814.35 1184.07L2791.27 1126.26C2826.34 1088.4 2800.35 1020.98 2742.84 1032.38C2693.15 1042.24 2709.91 1125.88 2752.05 1131.44L2776.41 1196.06C2672.69 1212.21 2599.58 1017.57 2717.19 974.415C2839.72 929.439 2904.47 1136.73 2814.35 1184.07ZM1181.06 197.033L1124.88 223.831C1084.82 191.29 1019.24 221.62 1034.36 278.257C1047.43 327.207 1129.81 305.033 1132.61 262.628L1195.5 234.099C1205.5 278.839 1174.99 320.385 1133.22 343.43L1133.05 350.835H1133.04L1132.92 356.29C1147.84 352.881 1158.21 354.43 1164.26 360.616C1180.53 377.265 1136.65 405.443 1130.48 397.629L1126.43 392.492C1136.24 390.695 1163.29 380.505 1148.58 368.447C1141.77 362.86 1130.42 366.554 1115.35 377.091C1120.42 367.501 1121.71 358.596 1118.86 350.438H1118.86C1067.12 372.509 1004.3 366.575 978.19 307.649C925.326 188.302 1127.95 110.186 1181.06 197.033ZM223.731 1903.59L250.537 1961.52C217.868 2002.59 248.202 2070.21 305.004 2054.9C354.099 2041.67 331.963 1956.81 289.446 1953.73L260.913 1888.9C363.665 1865.82 449.297 2061.15 334.401 2112.83C214.686 2166.69 136.603 1957.84 223.731 1903.59ZM279.248 1493.8L109.562 1474.34L116.045 1381.94L215.479 1352.21L126.855 1311.14L133.26 1216.59L300.591 1238.46L297.343 1288.72L177.921 1279.53L291.405 1337.89L287.893 1384.91L156.851 1420.58L281.145 1436.8L279.248 1493.8ZM2749.91 1548.5L2919.11 1571.76L2910.55 1663.99L2810.47 1691.47L2898.15 1734.53L2889.62 1828.91L2722.83 1803.29L2727.2 1753.11L2846.38 1764.99L2734.25 1704.09L2738.81 1657.16L2870.62 1624.45L2746.73 1605.44L2749.91 1548.5ZM226.636 1029.17L267.438 1046.19L287.165 1002.41C301.215 971.233 258.926 960.332 247.169 985.39L226.636 1029.17ZM169.62 1077.54L328.496 1147.79L357.678 1092.13L296.612 1059.16L326.876 997.555C372.161 905.373 252.632 877.799 221.5 952.708L169.62 1077.54ZM2787.87 2000.55L2746.99 1983.71L2727.46 2027.57C2713.55 2058.82 2755.88 2069.53 2767.52 2044.42L2787.87 2000.55ZM2844.67 1951.94L2685.48 1882.39L2656.55 1938.17L2717.76 1970.87L2687.77 2032.61C2642.89 2124.99 2762.54 2152.03 2793.34 2076.99L2844.67 1951.94ZM305.231 794.782L345.231 742.361L425.748 805.047C455.529 828.237 505.248 761.137 482.492 744.522L394.401 680.216L434.934 627.794L518.698 695.889C544.686 717.013 549.355 765.621 530.041 790.456L484.653 848.819C468.93 869.026 412.574 872.555 395.483 860.175L305.231 794.782ZM2256.55 320.761L2310.09 359.232L2249.74 441.525C2227.43 471.951 2295.92 519.724 2311.88 496.501L2373.62 406.6L2427.18 445.604L2361.53 531.29C2341.15 557.881 2292.7 563.951 2267.33 545.356L2207.68 501.649C2187.03 486.53 2181.89 430.286 2193.78 412.856L2256.55 320.761ZM1312.85 78.4795C1323.07 63.81 1334.77 58.3348 1352.57 55.9174C1371.48 52.9587 1376.28 64.029 1390.94 66.7191C1402.46 68.8431 1416.04 62.5828 1426.61 55.372C1431.01 52.3679 1436.06 55.2687 1433.5 62.5331C1430.55 79.967 1419.69 90.2935 1406.96 92.1778C1389.29 94.8059 1378.55 79.5786 1358.11 79.5538C1344.47 79.5414 1335.92 80.9216 1322.31 92.12C1312.64 100.066 1307.37 86.3348 1312.85 78.4795ZM479.859 560.513L624.145 422.174L654.946 453.517L604.157 502.149L700.884 593.48L653.868 636.712L560.38 547.546L513.905 594.563L479.859 560.513ZM2711.74 787.621L2558.81 888.001L2597.71 942.043L2750.11 845.307L2711.74 787.621ZM2380.88 642.129L2519.76 523.249L2573.27 591.873L2545.16 707.534L2622.17 638.36L2662.02 685.778L2523.68 806.29L2469.09 745.765L2498.82 619.852L2419.93 688.484L2380.88 642.129ZM1500 3000C2328.43 3000 3000 2328.43 3000 1500C3000 671.575 2328.43 0 1500 0C671.574 0 0 671.575 0 1500C0 2328.43 671.574 3000 1500 3000Z" fill="white"/>
</svg>
